<svg width="400" height="48" viewBox="0 0 400 48" fill="none" xmlns="http://www.w3.org/2000/svg">
    <rect width="400" height="48" rx="10" fill="#3881F7"/>
    <path d="M195.665 17.688V32.344H197.345V17.688H195.665ZM196.961 23.304V24.696H199.617V23.304H196.961ZM186.609 27.368V28.76H187.793C190.449 28.76 192.401 28.68 194.641 28.28L194.465 26.872C192.305 27.272 190.385 27.368 187.793 27.368H186.609ZM186.609 19.08V28.008H188.273V20.44H193.409V19.08H186.609ZM207.328 18.008C204.144 18.008 202.128 19.064 202.128 20.808C202.128 22.568 204.144 23.608 207.328 23.608C210.528 23.608 212.544 22.568 212.544 20.808C212.544 19.064 210.528 18.008 207.328 18.008ZM207.328 19.32C209.504 19.32 210.816 19.832 210.816 20.808C210.816 21.768 209.504 22.296 207.328 22.296C205.152 22.296 203.856 21.768 203.856 20.808C203.856 19.832 205.152 19.32 207.328 19.32ZM202.304 27.256V32.152H212.336V27.256H202.304ZM210.704 28.6V30.808H203.952V28.6H210.704ZM200.72 24.68V26.008H213.936V24.68H200.72Z" fill="white"/>
</svg>
