<svg width="16" height="16" viewBox="0 0 16 16" fill="none" xmlns="http://www.w3.org/2000/svg">
    <path d="M8 14C11.3137 14 14 11.3137 14 8C14 4.68629 11.3137 2 8 2C4.68629 2 2 4.68629 2 8C2 11.3137 4.68629 14 8 14Z" fill="#E7E7E7" stroke="#E7E7E7" stroke-width="2" stroke-miterlimit="10" stroke-linecap="round" stroke-linejoin="round"/>
    <path d="M10.7071 7.37373C11.0976 6.98321 11.0976 6.35004 10.7071 5.95952C10.3166 5.56899 9.68342 5.56899 9.29289 5.95952L10.7071 7.37373ZM7.33333 9.33329L6.62623 10.0404C7.01675 10.4309 7.64992 10.4309 8.04044 10.0404L7.33333 9.33329ZM6.70711 7.29285C6.31658 6.90233 5.68342 6.90233 5.29289 7.29285C4.90237 7.68338 4.90237 8.31654 5.29289 8.70707L6.70711 7.29285ZM9.29289 5.95952L6.62623 8.62619L8.04044 10.0404L10.7071 7.37373L9.29289 5.95952ZM8.04044 8.62619L6.70711 7.29285L5.29289 8.70707L6.62623 10.0404L8.04044 8.62619Z" fill="white"/>
</svg>
