<svg width="24" height="24" fill="none" xmlns="http://www.w3.org/2000/svg"><g opacity=".6"><path d="M10.7543 3.45879c.7178-.61172 1.7736-.61172 2.4914 0l1.221 1.0405c.3076.26214.69.42056 1.0929.45271l1.5991.12761c.9401.07502 1.6867.82156 1.7617 1.76169l.1276 1.5991c.0322.40287.1906.78533.4527 1.09293l1.0405 1.22097c.6117.7178.6117 1.7736 0 2.4914l-1.0405 1.221c-.2621.3076-.4205.69-.4527 1.0929l-.1276 1.5991c-.075.9401-.8216 1.6867-1.7617 1.7617l-1.5991.1276c-.4029.0322-.7853.1906-1.0929.4527l-1.221 1.0405c-.7178.6117-1.7736.6117-2.4914 0l-1.22097-1.0405c-.3076-.2621-.69006-.4205-1.09293-.4527l-1.5991-.1276c-.94013-.075-1.68667-.8216-1.76169-1.7617L4.952 15.5596c-.03215-.4029-.19057-.7853-.45271-1.0929l-1.0405-1.221c-.61172-.7178-.61172-1.7736 0-2.4914l1.0405-1.22097c.26214-.3076.42056-.69006.45271-1.09293l.12761-1.5991c.07502-.94013.82156-1.68667 1.76169-1.76169L8.4404 4.952c.40287-.03215.78533-.19057 1.09293-.45271l1.22097-1.0405Z" fill="#878787" stroke="#878787" stroke-width="2" stroke-linecap="round" stroke-linejoin="round"/><path d="M15.7071 10.7071c.3905-.3905.3905-1.02368 0-1.41421-.3905-.39052-1.0237-.39052-1.4142 0l1.4142 1.41421ZM11 14l-.7071.7071c.3905.3905 1.0237.3905 1.4142 0L11 14Zm-1.29289-2.7071c-.39053-.3905-1.02369-.3905-1.41422 0-.39052.3905-.39052 1.0237 0 1.4142l1.41422-1.4142Zm4.58579-2.00001-4 4.00001 1.4142 1.4142 4-4-1.4142-1.41421Zm-2.5858 4.00001-1.99999-2-1.41422 1.4142 2.00001 2 1.4142-1.4142Z" fill="#fff"/></g></svg>